# xmcd
#
# Track frame offsets:
#	182
#	13315
#	28860
#
# Disc length: 577 seconds
#
# Revision: 1
# Processed by: cddbd v1.5.2PL0 Copyright (c) Steve Scherf et al.
# Submitted via: audiograbber 1.83.01
#
DISCID=20023f03
DTITLE=McBride, Martina - I love you (O.S.T. Runaway bride)
DYEAR=1999
DGENRE=Soundtrack Country
TTITLE0=I love you
TTITLE1=Happy girl
TTITLE2=Valentine
EXTD=
EXTT0=
EXTT1=
EXTT2=
PLAYORDER=
